# xmcd
#
# Track frame offsets:
#	150
#	17126
#	36778
#	50148
#	67739
#	84418
#	100289
#	116797
#	132677
#	148868
#	165996
#	182165
#	200951
#	219480
#
# Disc length: 3148 seconds
#
# Revision: 2
# Processed by: cddbd v1.5.2PL0 Copyright (c) Steve Scherf et al.
# Submitted via: audiograbber 1.83.01
#
DISCID=d40c4a0e
DTITLE=Karaoke - SD 149
DYEAR=2006
DGENRE=Country
TTITLE0=Trace Adkins - Ladies Love Country Boys
TTITLE1=Faith Hill - Stealing Kisses
TTITLE2=George Strait - It Just Comes Natural
TTITLE3=Rodney Atkins - Watching You
TTITLE4=Kelly Pickler - Red High Heels
TTITLE5=Steve Holy - Come On Rain
TTITLE6=Little Big Town - Good As Gone
TTITLE7=Wreckers - My, Oh My
TTITLE8=Clay Walker - 'Fore She Was Mama
TTITLE9=Ashley Monroe w/Ronnie Dunn - I Don't Want To
TTITLE10=Billy Currington - Good Directions
TTITLE11=Pat Green - Dixie Lullabye
TTITLE12=Keith Anderson - Podunk
TTITLE13=Kenny Rogers - The Last Ten Years ( Superman )
EXTD=
EXTT0=
EXTT1=
EXTT2=
EXTT3=
EXTT4=
EXTT5=
EXTT6=
EXTT7=
EXTT8=
EXTT9=
EXTT10=
EXTT11=
EXTT12=
EXTT13=
PLAYORDER=
